{"asset":{"version":"2.0","generator":"Blockbench 3.8.4 glTF exporter"},"scenes":[{"nodes":[0,1,2,3,4,5,6,7,8,9,12],"name":"blockbench_export"}],"scene":0,"nodes":[{"rotation":[0,0.19509032201612825,0,0.9807852804032304],"translation":[0.09611560447535272,1,0.6749151974402926],"scale":[1.127,1,1.127],"name":"386fa60b-41ad-8e7c-0471-766f3e92f988","mesh":0},{"rotation":[0.19509032201612825,0,0,0.9807852804032304],"translation":[0.53125,0.8125,0.59375],"name":"bfef5a29-3aa7-8ecb-259a-86350e0c65dd","mesh":1},{"rotation":[0.19509032201612825,0,0,0.9807852804032304],"translation":[0.53125,0.8125,0.59375],"name":"74fafcd1-5218-0b23-50ff-ed3a760b8322","mesh":2},{"translation":[0.03125,0.03125,0.03125],"name":"7fa9792d-4e94-3b05-185a-71aca1ef1bbb","mesh":3},{"rotation":[0,-0.19509032201612825,0,0.9807852804032304],"translation":[0.9433766383150273,1,0.6844453225163045],"scale":[1.127,1,1.127],"name":"77685294-d2e5-9045-1ef4-b745cc404b5c","mesh":4},{"name":"f35e89b0-93b9-866c-dd17-57e77c05bfd2","mesh":5},{"name":"2a57117c-c146-8835-d28f-af7c401ffb8b","mesh":6},{"rotation":[0.19509032201612825,0,0,0.9807852804032304],"translation":[0.53125,0.6920615375679295,0.7112867570890007],"name":"14e18091-0245-2d66-1acd-c8b07aea56a1","mesh":7},{"rotation":[-0.19509032201612825,0,0,0.9807852804032304],"translation":[0.53125,0.8125,0.59375],"name":"b39395aa-e27d-00ab-29f1-9d42c33b51c0","mesh":8},{"translation":[0.53125,1.0625,0.59375],"name":"d0fb24e7-3fa4-c80f-0d44-d53d5e0572b3","mesh":9},{"translation":[-0.46875,-0.46875,-0.46875],"name":"group"},{"translation":[0.03125,0.3125,0.09375],"name":"group"},{"translation":[0.5,0.5,0.5],"name":"group","children":[10,11]}],"bufferViews":[{"buffer":0,"byteOffset":0,"byteLength":432,"target":34962,"byteStride":12},{"buffer":0,"byteOffset":432,"byteLength":432,"target":34962,"byteStride":12},{"buffer":0,"byteOffset":864,"byteLength":288,"target":34962,"byteStride":8},{"buffer":0,"byteOffset":1152,"byteLength":12,"target":34963},{"buffer":0,"byteOffset":1164,"byteLength":12,"target":34963},{"buffer":0,"byteOffset":1176,"byteLength":12,"target":34963},{"buffer":0,"byteOffset":1188,"byteLength":12,"target":34963},{"buffer":0,"byteOffset":1200,"byteLength":12,"target":34963},{"buffer":0,"byteOffset":1212,"byteLength":12,"target":34963},{"buffer":0,"byteOffset":1224,"byteLength":432,"target":34962,"byteStride":12},{"buffer":0,"byteOffset":1656,"byteLength":432,"target":34962,"byteStride":12},{"buffer":0,"byteOffset":2088,"byteLength":288,"target":34962,"byteStride":8},{"buffer":0,"byteOffset":2376,"byteLength":432,"target":34962,"byteStride":12},{"buffer":0,"byteOffset":2808,"byteLength":432,"target":34962,"byteStride":12},{"buffer":0,"byteOffset":3240,"byteLength":288,"target":34962,"byteStride":8},{"buffer":0,"byteOffset":3528,"byteLength":432,"target":34962,"byteStride":12},{"buffer":0,"byteOffset":3960,"byteLength":432,"target":34962,"byteStride":12},{"buffer":0,"byteOffset":4392,"byteLength":288,"target":34962,"byteStride":8},{"buffer":0,"byteOffset":4680,"byteLength":12,"target":34963},{"buffer":0,"byteOffset":4692,"byteLength":12,"target":34963},{"buffer":0,"byteOffset":4704,"byteLength":12,"target":34963},{"buffer":0,"byteOffset":4716,"byteLength":12,"target":34963},{"buffer":0,"byteOffset":4728,"byteLength":12,"target":34963},{"buffer":0,"byteOffset":4740,"byteLength":12,"target":34963},{"buffer":0,"byteOffset":4752,"byteLength":432,"target":34962,"byteStride":12},{"buffer":0,"byteOffset":5184,"byteLength":432,"target":34962,"byteStride":12},{"buffer":0,"byteOffset":5616,"byteLength":288,"target":34962,"byteStride":8},{"buffer":0,"byteOffset":5904,"byteLength":432,"target":34962,"byteStride":12},{"buffer":0,"byteOffset":6336,"byteLength":432,"target":34962,"byteStride":12},{"buffer":0,"byteOffset":6768,"byteLength":288,"target":34962,"byteStride":8},{"buffer":0,"byteOffset":7056,"byteLength":432,"target":34962,"byteStride":12},{"buffer":0,"byteOffset":7488,"byteLength":432,"target":34962,"byteStride":12},{"buffer":0,"byteOffset":7920,"byteLength":288,"target":34962,"byteStride":8},{"buffer":0,"byteOffset":8208,"byteLength":432,"target":34962,"byteStride":12},{"buffer":0,"byteOffset":8640,"byteLength":432,"target":34962,"byteStride":12},{"buffer":0,"byteOffset":9072,"byteLength":288,"target":34962,"byteStride":8},{"buffer":0,"byteOffset":9360,"byteLength":432,"target":34962,"byteStride":12},{"buffer":0,"byteOffset":9792,"byteLength":432,"target":34962,"byteStride":12},{"buffer":0,"byteOffset":10224,"byteLength":288,"target":34962,"byteStride":8},{"buffer":0,"byteOffset":10512,"byteLength":432,"target":34962,"byteStride":12},{"buffer":0,"byteOffset":10944,"byteLength":432,"target":34962,"byteStride":12},{"buffer":0,"byteOffset":11376,"byteLength":288,"target":34962,"byteStride":8}],"buffers":[{"byteLength":11664,"uri":"data:application/octet-stream;base64,"}],"accessors":[{"bufferView":0,"componentType":5126,"count":36,"max":[0.203125,0.1875,0.156312495470047],"min":[-0.234375,-0.1875,0.15625],"type":"VEC3"},{"bufferView":1,"componentType":5126,"count":36,"max":[1,1,1],"min":[-1,-1,-1],"type":"VEC3"},{"bufferView":2,"componentType":5126,"count":36,"max":[1,1],"min":[0,0.625],"type":"VEC2"},{"bufferView":3,"componentType":5123,"count":6,"max":[5],"min":[0],"type":"SCALAR"},{"bufferView":4,"componentType":5123,"count":6,"max":[11],"min":[6],"type":"SCALAR"},{"bufferView":5,"componentType":5123,"count":6,"max":[17],"min":[12],"type":"SCALAR"},{"bufferView":6,"componentType":5123,"count":6,"max":[23],"min":[18],"type":"SCALAR"},{"bufferView":7,"componentType":5123,"count":6,"max":[29],"min":[24],"type":"SCALAR"},{"bufferView":8,"componentType":5123,"count":6,"max":[35],"min":[30],"type":"SCALAR"},{"bufferView":9,"componentType":5126,"count":36,"max":[-0.125,0.09375,0],"min":[-0.1875,-0.15625,-0.0625],"type":"VEC3"},{"bufferView":10,"componentType":5126,"count":36,"max":[1,1,1],"min":[-1,-1,-1],"type":"VEC3"},{"bufferView":11,"componentType":5126,"count":36,"max":[0.0625,1],"min":[0,0.75],"type":"VEC2"},{"bufferView":12,"componentType":5126,"count":36,"max":[0.1875,0.09375,0],"min":[0.125,-0.15625,-0.0625],"type":"VEC3"},{"bufferView":13,"componentType":5126,"count":36,"max":[1,1,1],"min":[-1,-1,-1],"type":"VEC3"},{"bufferView":14,"componentType":5126,"count":36,"max":[0.0625,1],"min":[0,0.75],"type":"VEC2"},{"bufferView":15,"componentType":5126,"count":36,"max":[0.65625,1.15625,0.71875],"min":[0.34375,0.90625,0.40625],"type":"VEC3"},{"bufferView":16,"componentType":5126,"count":36,"max":[1,1,1],"min":[-1,-1,-1],"type":"VEC3"},{"bufferView":17,"componentType":5126,"count":36,"max":[0.875,0.4375],"min":[0.5625,0.125],"type":"VEC2"},{"bufferView":18,"componentType":5123,"count":6,"max":[5],"min":[0],"type":"SCALAR"},{"bufferView":19,"componentType":5123,"count":6,"max":[11],"min":[6],"type":"SCALAR"},{"bufferView":20,"componentType":5123,"count":6,"max":[17],"min":[12],"type":"SCALAR"},{"bufferView":21,"componentType":5123,"count":6,"max":[23],"min":[18],"type":"SCALAR"},{"bufferView":22,"componentType":5123,"count":6,"max":[29],"min":[24],"type":"SCALAR"},{"bufferView":23,"componentType":5123,"count":6,"max":[35],"min":[30],"type":"SCALAR"},{"bufferView":24,"componentType":5126,"count":36,"max":[0.25,0.1875,0.140687495470047],"min":[-0.1875,-0.1875,0.140625],"type":"VEC3"},{"bufferView":25,"componentType":5126,"count":36,"max":[1,1,1],"min":[-1,-1,-1],"type":"VEC3"},{"bufferView":26,"componentType":5126,"count":36,"max":[0.5625,1],"min":[0,0.625],"type":"VEC2"},{"bufferView":27,"componentType":5126,"count":36,"max":[0.734375,1,0.78125],"min":[0.546875,0.875,0.71875],"type":"VEC3"},{"bufferView":28,"componentType":5126,"count":36,"max":[1,1,1],"min":[-1,-1,-1],"type":"VEC3"},{"bufferView":29,"componentType":5126,"count":36,"max":[0.3125,0.625],"min":[0.125,0.5],"type":"VEC2"},{"bufferView":30,"componentType":5126,"count":36,"max":[0.515625,1,0.78125],"min":[0.328125,0.875,0.71875],"type":"VEC3"},{"bufferView":31,"componentType":5126,"count":36,"max":[1,1,1],"min":[-1,-1,-1],"type":"VEC3"},{"bufferView":32,"componentType":5126,"count":36,"max":[0.3125,0.625],"min":[0.125,0.5],"type":"VEC2"},{"bufferView":33,"componentType":5126,"count":36,"max":[0.09375,0.15625,0.21875],"min":[-0.09375,-0.03125,-0.09375],"type":"VEC3"},{"bufferView":34,"componentType":5126,"count":36,"max":[1,1,1],"min":[-1,-1,-1],"type":"VEC3"},{"bufferView":35,"componentType":5126,"count":36,"max":[0.8125,1],"min":[0,0],"type":"VEC2"},{"bufferView":36,"componentType":5126,"count":36,"max":[0.125,0.1875,0.15625],"min":[-0.125,-0.125,-0.03125],"type":"VEC3"},{"bufferView":37,"componentType":5126,"count":36,"max":[1,1,1],"min":[-1,-1,-1],"type":"VEC3"},{"bufferView":38,"componentType":5126,"count":36,"max":[0.75,1],"min":[0,0.375],"type":"VEC2"},{"bufferView":39,"componentType":5126,"count":36,"max":[0.203125,-0.09375,0.125],"min":[-0.203125,-0.15625,-0.0625],"type":"VEC3"},{"bufferView":40,"componentType":5126,"count":36,"max":[1,1,1],"min":[-1,-1,-1],"type":"VEC3"},{"bufferView":41,"componentType":5126,"count":36,"max":[0.4375,0.625],"min":[0.3125,0.5625],"type":"VEC2"}],"materials":[{"pbrMetallicRoughness":{"metallicFactor":0,"roughnessFactor":1,"baseColorTexture":{"index":0}},"alphaMode":"MASK","alphaCutoff":0.05,"name":"Right Wing"},{"pbrMetallicRoughness":{"metallicFactor":0,"roughnessFactor":1,"baseColorTexture":{"index":1}},"alphaMode":"MASK","alphaCutoff":0.05,"name":"light_blue_wool.png"},{"pbrMetallicRoughness":{"metallicFactor":0,"roughnessFactor":1,"baseColorTexture":{"index":2}},"alphaMode":"MASK","alphaCutoff":0.05,"name":"blue_ice.png"},{"pbrMetallicRoughness":{"metallicFactor":0,"roughnessFactor":1,"baseColorTexture":{"index":3}},"alphaMode":"MASK","alphaCutoff":0.05,"name":"texture"},{"pbrMetallicRoughness":{"metallicFactor":0,"roughnessFactor":1,"baseColorTexture":{"index":4}},"alphaMode":"MASK","alphaCutoff":0.05,"name":"light_blue_concrete_powder.png"},{"pbrMetallicRoughness":{"metallicFactor":0,"roughnessFactor":1,"baseColorTexture":{"index":5}},"alphaMode":"MASK","alphaCutoff":0.05,"name":"pasted"},{"pbrMetallicRoughness":{"metallicFactor":0,"roughnessFactor":1,"baseColorTexture":{"index":6}},"alphaMode":"MASK","alphaCutoff":0.05,"name":"light_blue_shulker_box.png"}],"textures":[{"sampler":0,"source":0,"name":"Right Wing"},{"sampler":1,"source":1,"name":"light_blue_wool.png"},{"sampler":2,"source":2,"name":"blue_ice.png"},{"sampler":3,"source":3,"name":"texture"},{"sampler":4,"source":4,"name":"light_blue_concrete_powder.png"},{"sampler":5,"source":5,"name":"pasted"},{"sampler":6,"source":6,"name":"light_blue_shulker_box.png"}],"samplers":[{"magFilter":9728,"minFilter":9728,"wrapS":33071,"wrapT":33071},{"magFilter":9728,"minFilter":9728,"wrapS":33071,"wrapT":33071},{"magFilter":9728,"minFilter":9728,"wrapS":33071,"wrapT":33071},{"magFilter":9728,"minFilter":9728,"wrapS":33071,"wrapT":33071},{"magFilter":9728,"minFilter":9728,"wrapS":33071,"wrapT":33071},{"magFilter":9728,"minFilter":9728,"wrapS":33071,"wrapT":33071},{"magFilter":9728,"minFilter":9728,"wrapS":33071,"wrapT":33071}],"images":[{"mimeType":"image/png","uri":"data:image/png;base64,"},{"mimeType":"image/png","uri":"data:image/png;base64,"},{"mimeType":"image/png","uri":"data:image/png;base64,"},{"mimeType":"image/png","uri":"data:image/png;base64,"},{"mimeType":"image/png","uri":"data:image/png;base64,"},{"mimeType":"image/png","uri":"data:image/png;base64,"},{"mimeType":"image/png","uri":"data:image/png;base64,"}],"meshes":[{"primitives":[{"mode":4,"attributes":{"POSITION":0,"NORMAL":1,"TEXCOORD_0":2},"indices":3,"material":0},{"mode":4,"attributes":{"POSITION":0,"NORMAL":1,"TEXCOORD_0":2},"indices":4,"material":0},{"mode":4,"attributes":{"POSITION":0,"NORMAL":1,"TEXCOORD_0":2},"indices":5,"material":0},{"mode":4,"attributes":{"POSITION":0,"NORMAL":1,"TEXCOORD_0":2},"indices":6,"material":0},{"mode":4,"attributes":{"POSITION":0,"NORMAL":1,"TEXCOORD_0":2},"indices":7,"material":1},{"mode":4,"attributes":{"POSITION":0,"NORMAL":1,"TEXCOORD_0":2},"indices":8,"material":1}]},{"primitives":[{"mode":4,"attributes":{"POSITION":9,"NORMAL":10,"TEXCOORD_0":11},"material":2}]},{"primitives":[{"mode":4,"attributes":{"POSITION":12,"NORMAL":13,"TEXCOORD_0":14},"material":2}]},{"primitives":[{"mode":4,"attributes":{"POSITION":15,"NORMAL":16,"TEXCOORD_0":17},"indices":18,"material":2},{"mode":4,"attributes":{"POSITION":15,"NORMAL":16,"TEXCOORD_0":17},"indices":19,"material":2},{"mode":4,"attributes":{"POSITION":15,"NORMAL":16,"TEXCOORD_0":17},"indices":20,"material":2},{"mode":4,"attributes":{"POSITION":15,"NORMAL":16,"TEXCOORD_0":17},"indices":21,"material":2},{"mode":4,"attributes":{"POSITION":15,"NORMAL":16,"TEXCOORD_0":17},"indices":22,"material":2},{"mode":4,"attributes":{"POSITION":15,"NORMAL":16,"TEXCOORD_0":17},"indices":23,"material":3}]},{"primitives":[{"mode":4,"attributes":{"POSITION":24,"NORMAL":25,"TEXCOORD_0":26},"material":1}]},{"primitives":[{"mode":4,"attributes":{"POSITION":27,"NORMAL":28,"TEXCOORD_0":29},"material":4}]},{"primitives":[{"mode":4,"attributes":{"POSITION":30,"NORMAL":31,"TEXCOORD_0":32},"material":4}]},{"primitives":[{"mode":4,"attributes":{"POSITION":33,"NORMAL":34,"TEXCOORD_0":35},"material":5}]},{"primitives":[{"mode":4,"attributes":{"POSITION":36,"NORMAL":37,"TEXCOORD_0":38},"material":2}]},{"primitives":[{"mode":4,"attributes":{"POSITION":39,"NORMAL":40,"TEXCOORD_0":41},"material":6}]}]}